<svg width="34" height="34" viewBox="0 0 34 34" fill="none" xmlns="http://www.w3.org/2000/svg">
<path d="M17 34C26.3741 34 34 26.3727 34 17C34 7.62733 26.3727 0 17 0C7.62733 0 0 7.62592 0 17C0 26.3741 7.62592 34 17 34ZM17 2.125C25.1997 2.125 31.875 8.7975 31.875 17C31.875 25.1997 25.1997 31.875 17 31.875C8.7975 31.875 2.125 25.1997 2.125 17C2.125 8.7975 8.7975 2.125 17 2.125Z" fill="black"/>
<path d="M25.1344 7.18392C22.9273 5.35075 20.0925 4.25 16.9999 4.25C16.1074 4.25 15.2362 4.3435 14.3947 4.51775C15.9417 6.71075 17.347 8.993 18.5838 11.3588C20.9227 10.268 23.1242 8.86125 25.1344 7.18392Z" fill="black"/>
<path d="M21.0601 16.7902C23.8821 16.2094 26.8188 16.1555 29.7301 16.6386C29.6451 13.5999 28.5018 10.8289 26.6488 8.68262C24.4615 10.5257 22.056 12.0529 19.5017 13.2471C20.0599 14.4116 20.5784 15.5917 21.0601 16.7902Z" fill="black"/>
<path d="M16.6005 12.1621C15.3227 9.73818 13.8762 7.40068 12.2612 5.16943C8.43341 6.70368 5.53207 10.0357 4.58716 14.1256C8.71391 14.3013 12.7982 13.6142 16.6005 12.1621Z" fill="black"/>
<path d="M18.989 17.3188C18.5456 16.2266 18.0653 15.1513 17.5525 14.0874C13.872 15.5211 9.94075 16.3031 5.94292 16.3031C5.39325 16.3031 4.84075 16.2691 4.28825 16.2393C4.27408 16.4915 4.25 16.7437 4.25 17.0001C4.25 20.1309 5.38333 22.9954 7.25475 25.2139C10.3162 21.4116 14.433 18.6873 18.989 17.3188Z" fill="black"/>
<path d="M21.8408 18.8006C22.8537 21.6282 23.6485 24.5338 24.2322 27.4947C27.1052 25.5127 29.1111 22.3819 29.6141 18.7652C27.0088 18.3047 24.3752 18.3246 21.8408 18.8006Z" fill="black"/>
<path d="M8.76205 26.7239C10.9862 28.6095 13.8564 29.7499 17 29.7499C18.887 29.7499 20.6734 29.3292 22.2841 28.5925C21.7005 25.4178 20.8505 22.311 19.7526 19.2949C15.4686 20.5458 11.5996 23.1171 8.76205 26.7239Z" fill="black"/>
</svg>
