<svg width="34" height="34" viewBox="0 0 34 34" fill="none" xmlns="http://www.w3.org/2000/svg">
<g clip-path="url(#clip0)">
<path d="M30.8125 4.25H3.18752C1.42981 4.25 0 5.67981 0 7.43752V26.5625C0 28.3202 1.42981 29.75 3.18752 29.75H30.8125C32.5702 29.75 34 28.3202 34 26.5625V7.43752C34 5.67981 32.5702 4.25 30.8125 4.25ZM30.8125 6.37499C30.9568 6.37499 31.0942 6.40494 31.2197 6.45725L17 18.7816L2.78021 6.45725C2.90576 6.40501 3.04309 6.37499 3.18745 6.37499H30.8125ZM30.8125 27.625H3.18752C2.60129 27.625 2.12499 27.1488 2.12499 26.5624V8.70233L16.3038 20.9906C16.504 21.1638 16.752 21.25 17 21.25C17.248 21.25 17.496 21.1639 17.6962 20.9906L31.875 8.70233V26.5625C31.8749 27.1488 31.3987 27.625 30.8125 27.625Z" fill="black"/>
</g>
<defs>
<clipPath id="clip0">
<rect width="34" height="34" fill="white"/>
</clipPath>
</defs>
</svg>
