<svg width="34" height="34" viewBox="0 0 34 34" fill="none" xmlns="http://www.w3.org/2000/svg">
<g clip-path="url(#clip0)">
<path d="M17.0057 8.27051C12.1847 8.27051 8.28183 12.1777 8.28183 16.9943C8.28183 21.8153 12.189 25.7182 17.0057 25.7182C21.8266 25.7182 25.7295 21.811 25.7295 16.9943C25.7295 12.1734 21.8223 8.27051 17.0057 8.27051ZM17.0057 22.6568C13.8762 22.6568 11.3432 20.1223 11.3432 16.9943C11.3432 13.8663 13.8777 11.3319 17.0057 11.3319C20.1337 11.3319 22.6681 13.8663 22.6681 16.9943C22.6695 20.1223 20.1351 22.6568 17.0057 22.6568Z" fill="black"/>
<path d="M24.0095 0.108018C20.8815 -0.0378982 13.1337 -0.0308149 10.0029 0.108018C7.25172 0.236935 4.82497 0.901352 2.86855 2.85777C-0.401114 6.12744 0.0168032 10.5333 0.0168032 16.9947C0.0168032 23.6077 -0.35153 27.9115 2.86855 31.1316C6.15097 34.4126 10.6206 33.9834 17.0055 33.9834C23.5561 33.9834 25.8171 33.9876 28.1334 33.0909C31.2826 31.8683 33.6598 29.0534 33.8921 23.9973C34.0395 20.8679 34.031 13.1215 33.8921 9.99069C33.6116 4.02227 30.4086 0.402685 24.0095 0.108018ZM28.9607 28.9684C26.8173 31.1118 23.8437 30.9205 16.9644 30.9205C9.88105 30.9205 7.04064 31.0254 4.96805 28.9471C2.58097 26.5714 3.01305 22.7563 3.01305 16.972C3.01305 9.14494 2.2098 3.50802 10.0652 3.10569C11.8701 3.04194 12.4013 3.02069 16.9446 3.02069L17.0083 3.06319C24.5577 3.06319 30.4808 2.27269 30.8364 10.1267C30.9171 11.9188 30.9356 12.4571 30.9356 16.9933C30.9341 23.9944 31.0673 26.8519 28.9607 28.9684Z" fill="black"/>
<path d="M26.0752 9.96486C27.2011 9.96486 28.1138 9.05215 28.1138 7.92628C28.1138 6.8004 27.2011 5.8877 26.0752 5.8877C24.9493 5.8877 24.0366 6.8004 24.0366 7.92628C24.0366 9.05215 24.9493 9.96486 26.0752 9.96486Z" fill="black"/>
</g>
<defs>
<clipPath id="clip0">
<rect width="34" height="34" fill="white"/>
</clipPath>
</defs>
</svg>
