<svg width="33" height="33" viewBox="0 0 33 33" fill="none" xmlns="http://www.w3.org/2000/svg">
<path d="M1.0716 31.572H5.36166C5.95352 31.572 6.43326 31.0922 6.43326 30.5003V11.7486C6.43326 11.1567 5.95352 10.677 5.36166 10.677H1.0716C0.479684 10.677 0 11.1567 0 11.7486V30.5003C0 31.0921 0.479684 31.572 1.0716 31.572Z" fill="black"/>
<path d="M1.0716 7.38053H5.36166C5.95352 7.38053 6.43326 6.90079 6.43326 6.30893V2.49934C6.43326 1.90748 5.95352 1.42773 5.36166 1.42773H1.0716C0.479684 1.42773 0 1.90748 0 2.49934V6.30893C0 6.90079 0.479684 7.38053 1.0716 7.38053Z" fill="black"/>
<path d="M31.3858 12.8522C30.783 12.0587 29.8941 11.4061 28.7187 10.8946C27.5433 10.3834 26.246 10.1277 24.8265 10.1277C21.9449 10.1277 19.5032 11.2274 17.5014 13.4273C17.1031 13.865 16.8135 13.7693 16.8135 13.1774V11.7488C16.8135 11.1569 16.3337 10.6772 15.7419 10.6772H11.9096C11.3177 10.6772 10.838 11.1569 10.838 11.7488V30.5006C10.838 31.0924 11.3178 31.5722 11.9096 31.5722H16.1997C16.7916 31.5722 17.2713 31.0924 17.2713 30.5006V23.9792C17.2713 21.2624 17.4354 19.4002 17.7635 18.3929C18.0915 17.3856 18.6984 16.5767 19.5836 15.9662C20.4689 15.3556 21.4685 15.0502 22.5829 15.0502C23.4528 15.0502 24.197 15.2639 24.8152 15.6914C25.4334 16.1189 25.8799 16.7177 26.1546 17.4886C26.4295 18.2595 26.5668 19.9574 26.5668 22.5828V30.5005C26.5668 31.0924 27.0465 31.5722 27.6383 31.5722H31.9284C32.5202 31.5722 32.9999 31.0924 32.9999 30.5005V19.8811C32.9999 18.0038 32.8816 16.5614 32.6453 15.5541C32.4089 14.5468 31.989 13.6461 31.3858 12.8522Z" fill="black"/>
</svg>
